<svg xmlns="http://www.w3.org/2000/svg" viewBox="0 0 95.52 71.87"><defs><style>.cls-1{fill:#fff;}</style></defs><title>lgbt</title><g id="Lag_2" data-name="Lag 2"><g id="Lag_1-2" data-name="Lag 1"><path class="cls-1" d="M70.89,71.86A25,25,0,0,1,46,50.16H27.45v7.23h3.66a2.17,2.17,0,0,1,0,4.34H27.45v7.72a2.17,2.17,0,0,1-4.34,0V61.73H19.05a2.17,2.17,0,0,1,0-4.34h4.07V50.08A25.08,25.08,0,1,1,49.93,21.71h19V7.65l-4.82,4.82a2.17,2.17,0,0,1-3.12-3L69.52.93a2.12,2.12,0,0,1,.33-.27L70,.57l.21-.11.21-.07.2,0a2.19,2.19,0,0,1,.84,0l.19,0,.22.07.19.09.19.11a2.1,2.1,0,0,1,.33.27l8.53,8.52a2.17,2.17,0,0,1-3.07,3.07L73.23,7.7V21.87a25.08,25.08,0,0,1-2.37,50ZM50.15,46.78A20.74,20.74,0,1,0,70.89,26H50.15ZM25.07,4.34a20.74,20.74,0,0,0,0,41.47H45.81V25.08A20.76,20.76,0,0,0,25.07,4.34Z"/></g></g></svg>